<mxfile host="app.diagrams.net" modified="2023-10-15T18:57:30.332Z" agent="Mozilla/5.0 (Windows NT 10.0; Win64; x64) AppleWebKit/537.36 (KHTML, like Gecko) Chrome/117.0.0.0 Safari/537.36" etag="o-_QfZkNTMuOJ6NXMjfY" version="22.0.4" type="device">
  <diagram name="PÃ¡gina-1" id="yYDjsf7TxtFNMvkuyLiJ">
    <mxGraphModel dx="1434" dy="729" grid="1" gridSize="10" guides="1" tooltips="1" connect="1" arrows="1" fold="1" page="1" pageScale="1" pageWidth="827" pageHeight="1169" math="0" shadow="0">
      <root>
        <mxCell id="0" />
        <mxCell id="1" parent="0" />
        <mxCell id="HbJUNmLFR2WcDqkG6CsS-2" value="monitorizacion" style="rounded=0;whiteSpace=wrap;html=1;" parent="1" vertex="1">
          <mxGeometry x="110" y="560" width="120" height="60" as="geometry" />
        </mxCell>
        <mxCell id="HbJUNmLFR2WcDqkG6CsS-3" value="consola" style="rounded=0;whiteSpace=wrap;html=1;" parent="1" vertex="1">
          <mxGeometry x="570" y="560" width="120" height="60" as="geometry" />
        </mxCell>
        <mxCell id="e7S-K1D19GoaA7_8Xtrd-3" style="edgeStyle=orthogonalEdgeStyle;rounded=0;orthogonalLoop=1;jettySize=auto;html=1;exitX=1;exitY=0.25;exitDx=0;exitDy=0;entryX=0;entryY=0.5;entryDx=0;entryDy=0;" edge="1" parent="1" source="HbJUNmLFR2WcDqkG6CsS-4" target="HbJUNmLFR2WcDqkG6CsS-7">
          <mxGeometry relative="1" as="geometry" />
        </mxCell>
        <mxCell id="e7S-K1D19GoaA7_8Xtrd-4" style="edgeStyle=orthogonalEdgeStyle;rounded=0;orthogonalLoop=1;jettySize=auto;html=1;exitX=1;exitY=0.75;exitDx=0;exitDy=0;entryX=0;entryY=0.5;entryDx=0;entryDy=0;" edge="1" parent="1" source="HbJUNmLFR2WcDqkG6CsS-4" target="HbJUNmLFR2WcDqkG6CsS-11">
          <mxGeometry relative="1" as="geometry" />
        </mxCell>
        <mxCell id="HbJUNmLFR2WcDqkG6CsS-4" value="monitor-temperatura&lt;br&gt;(n segundos)" style="rounded=0;whiteSpace=wrap;html=1;" parent="1" vertex="1">
          <mxGeometry x="110" y="370" width="120" height="60" as="geometry" />
        </mxCell>
        <mxCell id="e7S-K1D19GoaA7_8Xtrd-9" style="edgeStyle=orthogonalEdgeStyle;rounded=0;orthogonalLoop=1;jettySize=auto;html=1;exitX=0.5;exitY=1;exitDx=0;exitDy=0;entryX=0.5;entryY=0;entryDx=0;entryDy=0;" edge="1" parent="1" source="HbJUNmLFR2WcDqkG6CsS-7" target="HbJUNmLFR2WcDqkG6CsS-10">
          <mxGeometry relative="1" as="geometry" />
        </mxCell>
        <mxCell id="e7S-K1D19GoaA7_8Xtrd-10" style="edgeStyle=orthogonalEdgeStyle;rounded=0;orthogonalLoop=1;jettySize=auto;html=1;exitX=0.5;exitY=0;exitDx=0;exitDy=0;" edge="1" parent="1" source="HbJUNmLFR2WcDqkG6CsS-7">
          <mxGeometry relative="1" as="geometry">
            <mxPoint x="630" y="270" as="targetPoint" />
          </mxGeometry>
        </mxCell>
        <mxCell id="e7S-K1D19GoaA7_8Xtrd-11" style="edgeStyle=orthogonalEdgeStyle;rounded=0;orthogonalLoop=1;jettySize=auto;html=1;exitX=0.5;exitY=0;exitDx=0;exitDy=0;entryX=0.5;entryY=1;entryDx=0;entryDy=0;" edge="1" parent="1" source="HbJUNmLFR2WcDqkG6CsS-7" target="HbJUNmLFR2WcDqkG6CsS-8">
          <mxGeometry relative="1" as="geometry" />
        </mxCell>
        <mxCell id="HbJUNmLFR2WcDqkG6CsS-7" value="mock-wifi" style="rounded=0;whiteSpace=wrap;html=1;" parent="1" vertex="1">
          <mxGeometry x="570" y="270" width="120" height="60" as="geometry" />
        </mxCell>
        <mxCell id="HbJUNmLFR2WcDqkG6CsS-8" value="latencia_conexion&lt;br&gt;latencia_conseguir_ip&lt;br&gt;tasa_desconexion" style="text;html=1;align=center;verticalAlign=middle;whiteSpace=wrap;rounded=0;" parent="1" vertex="1">
          <mxGeometry x="555" y="180" width="150" height="60" as="geometry" />
        </mxCell>
        <mxCell id="HbJUNmLFR2WcDqkG6CsS-9" value="n periodo" style="text;html=1;align=center;verticalAlign=middle;whiteSpace=wrap;rounded=0;" parent="1" vertex="1">
          <mxGeometry x="140" y="330" width="60" height="30" as="geometry" />
        </mxCell>
        <mxCell id="HbJUNmLFR2WcDqkG6CsS-10" value="WIFI_CONECTADO&lt;br&gt;WIFI_DESCONECTADO&lt;br&gt;IP_CONSEGUIDA" style="text;html=1;align=center;verticalAlign=middle;whiteSpace=wrap;rounded=0;" parent="1" vertex="1">
          <mxGeometry x="540" y="360" width="180" height="70" as="geometry" />
        </mxCell>
        <mxCell id="HbJUNmLFR2WcDqkG6CsS-11" value="mock-flash" style="rounded=0;whiteSpace=wrap;html=1;" parent="1" vertex="1">
          <mxGeometry x="570" y="460" width="120" height="60" as="geometry" />
        </mxCell>
        <mxCell id="e7S-K1D19GoaA7_8Xtrd-6" style="edgeStyle=orthogonalEdgeStyle;rounded=0;orthogonalLoop=1;jettySize=auto;html=1;exitX=0.25;exitY=0;exitDx=0;exitDy=0;entryX=1;entryY=0.5;entryDx=0;entryDy=0;" edge="1" parent="1" source="e7S-K1D19GoaA7_8Xtrd-1" target="HbJUNmLFR2WcDqkG6CsS-2">
          <mxGeometry relative="1" as="geometry" />
        </mxCell>
        <mxCell id="e7S-K1D19GoaA7_8Xtrd-7" style="edgeStyle=orthogonalEdgeStyle;rounded=0;orthogonalLoop=1;jettySize=auto;html=1;exitX=0.75;exitY=0;exitDx=0;exitDy=0;entryX=0;entryY=0.5;entryDx=0;entryDy=0;" edge="1" parent="1" source="e7S-K1D19GoaA7_8Xtrd-1" target="HbJUNmLFR2WcDqkG6CsS-3">
          <mxGeometry relative="1" as="geometry" />
        </mxCell>
        <mxCell id="e7S-K1D19GoaA7_8Xtrd-1" value="monitor-gpio" style="rounded=0;whiteSpace=wrap;html=1;" vertex="1" parent="1">
          <mxGeometry x="350" y="700" width="120" height="60" as="geometry" />
        </mxCell>
      </root>
    </mxGraphModel>
  </diagram>
</mxfile>
